{
    "asset" : {
        "generator" : "Khronos glTF Blender I/O v1.1.46",
        "version" : "2.0"
    },
    "scene" : 0,
    "scenes" : [
        {
            "name" : "Scene",
            "nodes" : [
                0
            ]
        }
    ],
    "nodes" : [
        {
            "mesh" : 0,
            "name" : "Paving_Stone_1_LOW_UV+",
            "rotation" : [
                0.7071068286895752,
                0,
                0,
                0.7071067094802856
            ],
            "scale" : [
                0.25,
                0.25,
                0.25
            ]
        }
    ],
    "materials" : [
        {
            "doubleSided" : true,
            "emissiveFactor" : [
                0,
                0,
                0
            ],
            "name" : "Default OBJ",
            "pbrMetallicRoughness" : {
                "baseColorTexture" : {
                    "index" : 0,
                    "texCoord" : 0
                },
                "metallicFactor" : 0,
                "roughnessFactor" : 0.5
            }
        }
    ],
    "meshes" : [
        {
            "name" : "Paving_Stone_1_LOW_UV+",
            "primitives" : [
                {
                    "attributes" : {
                        "POSITION" : 0,
                        "NORMAL" : 1,
                        "TEXCOORD_0" : 2
                    },
                    "indices" : 3,
                    "material" : 0
                }
            ]
        }
    ],
    "textures" : [
        {
            "source" : 0
        }
    ],
    "images" : [
        {
            "bufferView" : 4,
            "mimeType" : "image/png",
            "name" : "output-onlinejpgtools-min"
        }
    ],
    "accessors" : [
        {
            "bufferView" : 0,
            "componentType" : 5126,
            "count" : 2240,
            "max" : [
                4.593170166015625,
                4.46065092086792,
                4.11225700378418
            ],
            "min" : [
                -4.255389213562012,
                -5.1120829582214355,
                -4.117239952087402
            ],
            "type" : "VEC3"
        },
        {
            "bufferView" : 1,
            "componentType" : 5126,
            "count" : 2240,
            "type" : "VEC3"
        },
        {
            "bufferView" : 2,
            "componentType" : 5126,
            "count" : 2240,
            "type" : "VEC2"
        },
        {
            "bufferView" : 3,
            "componentType" : 5123,
            "count" : 3360,
            "type" : "SCALAR"
        }
    ],
    "bufferViews" : [
        {
            "buffer" : 0,
            "byteLength" : 26880,
            "byteOffset" : 0
        },
        {
            "buffer" : 0,
            "byteLength" : 26880,
            "byteOffset" : 26880
        },
        {
            "buffer" : 0,
            "byteLength" : 17920,
            "byteOffset" : 53760
        },
        {
            "buffer" : 0,
            "byteLength" : 6720,
            "byteOffset" : 71680
        },
        {
            "buffer" : 0,
            "byteLength" : 1416828,
            "byteOffset" : 78400
        }
    ],
    "buffers" : [
        {
            "byteLength" : 1495228,
            "uri" : "data:application/octet-stream;base64,"
        }
    ]
}
