{
    "asset" : {
        "generator" : "Khronos glTF Blender I/O v1.1.46",
        "version" : "2.0"
    },
    "scene" : 0,
    "scenes" : [
        {
            "name" : "Scene",
            "nodes" : [
                0
            ]
        }
    ],
    "nodes" : [
        {
            "mesh" : 0,
            "name" : "Cube"
        }
    ],
    "materials" : [
        {
            "doubleSided" : true,
            "emissiveFactor" : [
                0,
                0,
                0
            ],
            "name" : "mat_metal01",
            "pbrMetallicRoughness" : {
                "baseColorFactor" : [
                    0.1149357259273529,
                    0.1149357259273529,
                    0.1149357259273529,
                    1
                ],
                "metallicFactor" : 0.800000011920929,
                "roughnessFactor" : 0.5
            }
        },
        {
            "doubleSided" : true,
            "emissiveFactor" : [
                0,
                0,
                0
            ],
            "name" : "mat_metal02",
            "pbrMetallicRoughness" : {
                "baseColorFactor" : [
                    0.3505557179450989,
                    0.3505557179450989,
                    0.3505557179450989,
                    1
                ],
                "metallicFactor" : 0.800000011920929,
                "roughnessFactor" : 0.5
            }
        },
        {
            "doubleSided" : true,
            "emissiveFactor" : [
                0,
                0,
                0
            ],
            "name" : "mat_metal03",
            "pbrMetallicRoughness" : {
                "baseColorFactor" : [
                    0.001480380422435701,
                    0.0010117277270182967,
                    0.03521791473031044,
                    1
                ],
                "metallicFactor" : 0.800000011920929,
                "roughnessFactor" : 0.5
            }
        }
    ],
    "meshes" : [
        {
            "name" : "Cube.001",
            "primitives" : [
                {
                    "attributes" : {
                        "POSITION" : 0,
                        "NORMAL" : 1,
                        "TEXCOORD_0" : 2
                    },
                    "indices" : 3,
                    "material" : 0
                },
                {
                    "attributes" : {
                        "POSITION" : 4,
                        "NORMAL" : 5,
                        "TEXCOORD_0" : 6
                    },
                    "indices" : 7,
                    "material" : 1
                },
                {
                    "attributes" : {
                        "POSITION" : 8,
                        "NORMAL" : 9,
                        "TEXCOORD_0" : 10
                    },
                    "indices" : 11,
                    "material" : 2
                }
            ]
        }
    ],
    "accessors" : [
        {
            "bufferView" : 0,
            "componentType" : 5126,
            "count" : 408,
            "max" : [
                1.085184097290039,
                1.085184097290039,
                1.085184097290039
            ],
            "min" : [
                -1.085184097290039,
                -1.085184097290039,
                -1.085184097290039
            ],
            "type" : "VEC3"
        },
        {
            "bufferView" : 1,
            "componentType" : 5126,
            "count" : 408,
            "type" : "VEC3"
        },
        {
            "bufferView" : 2,
            "componentType" : 5126,
            "count" : 408,
            "type" : "VEC2"
        },
        {
            "bufferView" : 3,
            "componentType" : 5123,
            "count" : 1008,
            "type" : "SCALAR"
        },
        {
            "bufferView" : 4,
            "componentType" : 5126,
            "count" : 72,
            "max" : [
                1,
                1,
                1
            ],
            "min" : [
                -1,
                -1,
                -1
            ],
            "type" : "VEC3"
        },
        {
            "bufferView" : 5,
            "componentType" : 5126,
            "count" : 72,
            "type" : "VEC3"
        },
        {
            "bufferView" : 6,
            "componentType" : 5126,
            "count" : 72,
            "type" : "VEC2"
        },
        {
            "bufferView" : 7,
            "componentType" : 5123,
            "count" : 180,
            "type" : "SCALAR"
        },
        {
            "bufferView" : 8,
            "componentType" : 5126,
            "count" : 96,
            "max" : [
                1.085184097290039,
                1.085184097290039,
                1.085184097290039
            ],
            "min" : [
                -1.085184097290039,
                -1.085184097290039,
                -1.085184097290039
            ],
            "type" : "VEC3"
        },
        {
            "bufferView" : 9,
            "componentType" : 5126,
            "count" : 96,
            "type" : "VEC3"
        },
        {
            "bufferView" : 10,
            "componentType" : 5126,
            "count" : 96,
            "type" : "VEC2"
        },
        {
            "bufferView" : 11,
            "componentType" : 5123,
            "count" : 144,
            "type" : "SCALAR"
        }
    ],
    "bufferViews" : [
        {
            "buffer" : 0,
            "byteLength" : 4896,
            "byteOffset" : 0
        },
        {
            "buffer" : 0,
            "byteLength" : 4896,
            "byteOffset" : 4896
        },
        {
            "buffer" : 0,
            "byteLength" : 3264,
            "byteOffset" : 9792
        },
        {
            "buffer" : 0,
            "byteLength" : 2016,
            "byteOffset" : 13056
        },
        {
            "buffer" : 0,
            "byteLength" : 864,
            "byteOffset" : 15072
        },
        {
            "buffer" : 0,
            "byteLength" : 864,
            "byteOffset" : 15936
        },
        {
            "buffer" : 0,
            "byteLength" : 576,
            "byteOffset" : 16800
        },
        {
            "buffer" : 0,
            "byteLength" : 360,
            "byteOffset" : 17376
        },
        {
            "buffer" : 0,
            "byteLength" : 1152,
            "byteOffset" : 17736
        },
        {
            "buffer" : 0,
            "byteLength" : 1152,
            "byteOffset" : 18888
        },
        {
            "buffer" : 0,
            "byteLength" : 768,
            "byteOffset" : 20040
        },
        {
            "buffer" : 0,
            "byteLength" : 288,
            "byteOffset" : 20808
        }
    ],
    "buffers" : [
        {
            "byteLength" : 21096,
            "uri" : "data:application/octet-stream;base64,"
        }
    ]
}
