{
    "asset" : {
        "generator" : "Khronos glTF Blender I/O v1.1.46",
        "version" : "2.0"
    },
    "scene" : 0,
    "scenes" : [
        {
            "name" : "Scene",
            "nodes" : [
                4
            ]
        }
    ],
    "nodes" : [
        {
            "name" : "Bone",
            "scale" : [
                1.027133584022522,
                1.027133584022522,
                1.027133584022522
            ]
        },
        {
            "mesh" : 0,
            "name" : "NurbsPath",
            "skin" : 0
        },
        {
            "mesh" : 1,
            "name" : "Plane_5.001",
            "skin" : 0
        },
        {
            "mesh" : 2,
            "name" : "Sphere",
            "skin" : 0
        },
        {
            "children" : [
                1,
                2,
                3,
                0
            ],
            "name" : "Armature"
        }
    ],
    "animations" : [
        {
            "channels" : [
                {
                    "sampler" : 0,
                    "target" : {
                        "node" : 0,
                        "path" : "translation"
                    }
                },
                {
                    "sampler" : 1,
                    "target" : {
                        "node" : 0,
                        "path" : "rotation"
                    }
                },
                {
                    "sampler" : 2,
                    "target" : {
                        "node" : 0,
                        "path" : "scale"
                    }
                }
            ],
            "name" : "idle",
            "samplers" : [
                {
                    "input" : 19,
                    "interpolation" : "LINEAR",
                    "output" : 20
                },
                {
                    "input" : 19,
                    "interpolation" : "LINEAR",
                    "output" : 21
                },
                {
                    "input" : 19,
                    "interpolation" : "LINEAR",
                    "output" : 22
                }
            ]
        }
    ],
    "materials" : [
        {
            "doubleSided" : true,
            "emissiveFactor" : [
                0,
                0,
                0
            ],
            "name" : "Bomb",
            "normalTexture" : {
                "index" : 0,
                "texCoord" : 0
            },
            "pbrMetallicRoughness" : {
                "baseColorTexture" : {
                    "index" : 1,
                    "texCoord" : 0
                },
                "metallicFactor" : 0,
                "roughnessFactor" : 0.4000000059604645
            }
        }
    ],
    "meshes" : [
        {
            "name" : "NurbsPath",
            "primitives" : [
                {
                    "attributes" : {
                        "POSITION" : 0,
                        "NORMAL" : 1,
                        "TEXCOORD_0" : 2,
                        "JOINTS_0" : 3,
                        "WEIGHTS_0" : 4
                    },
                    "indices" : 5,
                    "material" : 0
                }
            ]
        },
        {
            "name" : "Mesh.001",
            "primitives" : [
                {
                    "attributes" : {
                        "POSITION" : 7,
                        "NORMAL" : 8,
                        "TEXCOORD_0" : 9,
                        "JOINTS_0" : 10,
                        "WEIGHTS_0" : 11
                    },
                    "indices" : 12,
                    "material" : 0
                }
            ]
        },
        {
            "name" : "Sphere",
            "primitives" : [
                {
                    "attributes" : {
                        "POSITION" : 13,
                        "NORMAL" : 14,
                        "TEXCOORD_0" : 15,
                        "JOINTS_0" : 16,
                        "WEIGHTS_0" : 17
                    },
                    "indices" : 18,
                    "material" : 0
                }
            ]
        }
    ],
    "textures" : [
        {
            "source" : 0
        },
        {
            "source" : 1
        }
    ],
    "images" : [
        {
            "bufferView" : 6,
            "mimeType" : "image/png",
            "name" : "Bomb_normals"
        },
        {
            "bufferView" : 7,
            "mimeType" : "image/png",
            "name" : "Bomb"
        }
    ],
    "skins" : [
        {
            "inverseBindMatrices" : 6,
            "joints" : [
                0
            ],
            "name" : "Armature"
        }
    ],
    "accessors" : [
        {
            "bufferView" : 0,
            "componentType" : 5126,
            "count" : 115,
            "max" : [
                0.24125683307647705,
                1.1089891195297241,
                0.029718324542045593
            ],
            "min" : [
                -0.029715735465288162,
                0.7910090684890747,
                -0.1182243674993515
            ],
            "type" : "VEC3"
        },
        {
            "bufferView" : 1,
            "componentType" : 5126,
            "count" : 115,
            "type" : "VEC3"
        },
        {
            "bufferView" : 2,
            "componentType" : 5126,
            "count" : 115,
            "type" : "VEC2"
        },
        {
            "bufferView" : 3,
            "componentType" : 5123,
            "count" : 115,
            "type" : "VEC4"
        },
        {
            "bufferView" : 4,
            "componentType" : 5126,
            "count" : 115,
            "type" : "VEC4"
        },
        {
            "bufferView" : 5,
            "componentType" : 5123,
            "count" : 528,
            "type" : "SCALAR"
        },
        {
            "bufferView" : 8,
            "componentType" : 5126,
            "count" : 1,
            "type" : "MAT4"
        },
        {
            "bufferView" : 9,
            "componentType" : 5126,
            "count" : 144,
            "max" : [
                0.3962736427783966,
                1.2168760299682617,
                -0.018739348277449608
            ],
            "min" : [
                0.1773545891046524,
                0.9803974032402039,
                -0.19997605681419373
            ],
            "type" : "VEC3"
        },
        {
            "bufferView" : 10,
            "componentType" : 5126,
            "count" : 144,
            "type" : "VEC3"
        },
        {
            "bufferView" : 11,
            "componentType" : 5126,
            "count" : 144,
            "type" : "VEC2"
        },
        {
            "bufferView" : 12,
            "componentType" : 5123,
            "count" : 144,
            "type" : "VEC4"
        },
        {
            "bufferView" : 13,
            "componentType" : 5126,
            "count" : 144,
            "type" : "VEC4"
        },
        {
            "bufferView" : 14,
            "componentType" : 5123,
            "count" : 216,
            "type" : "SCALAR"
        },
        {
            "bufferView" : 15,
            "componentType" : 5126,
            "count" : 210,
            "max" : [
                0.3753238320350647,
                0.8245136141777039,
                0.3753237724304199
            ],
            "min" : [
                -0.3753238320350647,
                0,
                -0.3753238916397095
            ],
            "type" : "VEC3"
        },
        {
            "bufferView" : 16,
            "componentType" : 5126,
            "count" : 210,
            "type" : "VEC3"
        },
        {
            "bufferView" : 17,
            "componentType" : 5126,
            "count" : 210,
            "type" : "VEC2"
        },
        {
            "bufferView" : 18,
            "componentType" : 5123,
            "count" : 210,
            "type" : "VEC4"
        },
        {
            "bufferView" : 19,
            "componentType" : 5126,
            "count" : 210,
            "type" : "VEC4"
        },
        {
            "bufferView" : 20,
            "componentType" : 5123,
            "count" : 1056,
            "type" : "SCALAR"
        },
        {
            "bufferView" : 21,
            "componentType" : 5126,
            "count" : 31,
            "max" : [
                1
            ],
            "min" : [
                0
            ],
            "type" : "SCALAR"
        },
        {
            "bufferView" : 22,
            "componentType" : 5126,
            "count" : 31,
            "type" : "VEC3"
        },
        {
            "bufferView" : 23,
            "componentType" : 5126,
            "count" : 31,
            "type" : "VEC4"
        },
        {
            "bufferView" : 24,
            "componentType" : 5126,
            "count" : 31,
            "type" : "VEC3"
        }
    ],
    "bufferViews" : [
        {
            "buffer" : 0,
            "byteLength" : 1380,
            "byteOffset" : 0
        },
        {
            "buffer" : 0,
            "byteLength" : 1380,
            "byteOffset" : 1380
        },
        {
            "buffer" : 0,
            "byteLength" : 920,
            "byteOffset" : 2760
        },
        {
            "buffer" : 0,
            "byteLength" : 920,
            "byteOffset" : 3680
        },
        {
            "buffer" : 0,
            "byteLength" : 1840,
            "byteOffset" : 4600
        },
        {
            "buffer" : 0,
            "byteLength" : 1056,
            "byteOffset" : 6440
        },
        {
            "buffer" : 0,
            "byteLength" : 1058596,
            "byteOffset" : 7496
        },
        {
            "buffer" : 0,
            "byteLength" : 986544,
            "byteOffset" : 1066092
        },
        {
            "buffer" : 0,
            "byteLength" : 64,
            "byteOffset" : 2052636
        },
        {
            "buffer" : 0,
            "byteLength" : 1728,
            "byteOffset" : 2052700
        },
        {
            "buffer" : 0,
            "byteLength" : 1728,
            "byteOffset" : 2054428
        },
        {
            "buffer" : 0,
            "byteLength" : 1152,
            "byteOffset" : 2056156
        },
        {
            "buffer" : 0,
            "byteLength" : 1152,
            "byteOffset" : 2057308
        },
        {
            "buffer" : 0,
            "byteLength" : 2304,
            "byteOffset" : 2058460
        },
        {
            "buffer" : 0,
            "byteLength" : 432,
            "byteOffset" : 2060764
        },
        {
            "buffer" : 0,
            "byteLength" : 2520,
            "byteOffset" : 2061196
        },
        {
            "buffer" : 0,
            "byteLength" : 2520,
            "byteOffset" : 2063716
        },
        {
            "buffer" : 0,
            "byteLength" : 1680,
            "byteOffset" : 2066236
        },
        {
            "buffer" : 0,
            "byteLength" : 1680,
            "byteOffset" : 2067916
        },
        {
            "buffer" : 0,
            "byteLength" : 3360,
            "byteOffset" : 2069596
        },
        {
            "buffer" : 0,
            "byteLength" : 2112,
            "byteOffset" : 2072956
        },
        {
            "buffer" : 0,
            "byteLength" : 124,
            "byteOffset" : 2075068
        },
        {
            "buffer" : 0,
            "byteLength" : 372,
            "byteOffset" : 2075192
        },
        {
            "buffer" : 0,
            "byteLength" : 496,
            "byteOffset" : 2075564
        },
        {
            "buffer" : 0,
            "byteLength" : 372,
            "byteOffset" : 2076060
        }
    ],
    "buffers" : [
        {
            "byteLength" : 2076432,
            "uri" : "data:application/octet-stream;base64,"
        }
    ]
}
